<svg width="35" height="35" viewBox="0 0 35 35" fill="none" xmlns="http://www.w3.org/2000/svg">
<path d="M18.1973 25.694V30.3763C18.1973 30.9971 18.011 31.5927 17.6794 32.0317C17.3478 32.4706 16.898 32.7174 16.429 32.7174H4.05091C3.58192 32.7174 3.13215 32.4706 2.80053 32.0317C2.46891 31.5927 2.28261 30.9971 2.28261 30.3763V4.62375C2.28261 4.00283 2.46891 3.40736 2.80053 2.96831C3.13215 2.52926 3.58192 2.28261 4.05091 2.28261H16.429C16.898 2.28261 17.3478 2.52926 17.6794 2.96831C18.011 3.40736 18.1973 4.00283 18.1973 4.62375V9.30602" stroke="#121212" stroke-width="4.5" stroke-linecap="round" stroke-linejoin="round"/>
<path d="M32.7174 17.5H18.571" stroke="#121212" stroke-width="4.5" stroke-linecap="round" stroke-linejoin="round"/>
<path d="M22.1076 12.8176L18.571 17.4999L22.1076 22.1822" stroke="#121212" stroke-width="4.5" stroke-linecap="round" stroke-linejoin="round"/>
</svg>
