<svg width="41" height="39" viewBox="0 0 41 39" fill="none" xmlns="http://www.w3.org/2000/svg">
<path fill-rule="evenodd" clip-rule="evenodd" d="M12.8123 1.625C13.7558 1.625 14.5207 2.35254 14.5207 3.25V4.875H26.479V3.25C26.479 2.35254 27.2439 1.625 28.1873 1.625C29.1308 1.625 29.8957 2.35254 29.8957 3.25V4.91512C34.212 5.32277 37.5832 8.78691 37.5832 13V27.625C37.5832 32.1123 33.7589 35.75 29.0415 35.75H11.9582C7.24074 35.75 3.4165 32.1123 3.4165 27.625V13C3.4165 8.78691 6.78762 5.32277 11.104 4.91512V3.25C11.104 2.35254 11.8689 1.625 12.8123 1.625ZM7.12479 11.375H33.8749C33.1713 9.48156 31.273 8.125 29.0415 8.125H11.9582C9.72671 8.125 7.82835 9.48156 7.12479 11.375ZM34.1665 14.625H6.83317V27.625C6.83317 30.3174 9.12771 32.5 11.9582 32.5H29.0415C31.872 32.5 34.1665 30.3174 34.1665 27.625V14.625ZM10.2498 19.5C10.2498 18.6025 11.0147 17.875 11.9582 17.875H29.0415C29.985 17.875 30.7498 18.6025 30.7498 19.5C30.7498 20.3975 29.985 21.125 29.0415 21.125H11.9582C11.0147 21.125 10.2498 20.3975 10.2498 19.5Z" fill="black"/>
</svg>
