<svg width="30" height="30" viewBox="0 0 30 30" fill="none" xmlns="http://www.w3.org/2000/svg">
<path d="M5 0C2.23833 0 0 2.2385 0 5V8.33333V23.3333C0 27.015 2.985 30 6.66667 30H23.3333C27.015 30 30 27.015 30 23.3333V8.33333C30 7.41283 29.2533 6.66667 28.3333 6.66667H20C18.7417 6.66667 18.3367 6.2585 17.3433 4.27083C15.8383 1.2585 14.575 0 11.6667 0H5ZM5 3.33333H11.6667C12.925 3.33333 13.33 3.7415 14.3233 5.72917C14.54 6.16433 14.6133 6.28783 14.8267 6.65117L8.28166 6.66667C7.35999 6.66667 6.61499 7.41283 6.61499 8.33333C6.61499 9.25383 7.35999 10 8.28166 10H20H26.6667V23.3333C26.6667 25.175 25.175 26.6667 23.3333 26.6667H6.66667C4.825 26.6667 3.33333 25.175 3.33333 23.3333V8.33333V5C3.33333 4.0795 4.08 3.33333 5 3.33333Z" fill="#2A343D"/>
</svg>
