<svg width="35" height="35" viewBox="0 0 35 35" fill="none" xmlns="http://www.w3.org/2000/svg">
<path d="M23.3332 30.625V7.29167C23.3332 6.51812 23.0259 5.77625 22.4789 5.22927C21.9319 4.68229 21.1901 4.375 20.4165 4.375H14.5832C13.8096 4.375 13.0678 4.68229 12.5208 5.22927C11.9738 5.77625 11.6665 6.51812 11.6665 7.29167V30.625M5.83317 10.2083H29.1665C30.7773 10.2083 32.0832 11.5142 32.0832 13.125V27.7083C32.0832 29.3192 30.7773 30.625 29.1665 30.625H5.83317C4.22234 30.625 2.9165 29.3192 2.9165 27.7083V13.125C2.9165 11.5142 4.22234 10.2083 5.83317 10.2083Z" stroke="#1E1E1E" stroke-width="4" stroke-linecap="round" stroke-linejoin="round"/>
</svg>
